<mxfile host="65bd71144e">
    <diagram name="Page-1" id="2q1nWeFOjrHke_GeI0AT">
        <mxGraphModel dx="2658" dy="592" grid="1" gridSize="10" guides="1" tooltips="1" connect="1" arrows="1" fold="1" page="1" pageScale="1" pageWidth="827" pageHeight="1169" math="0" shadow="0">
            <root>
                <mxCell id="0"/>
                <mxCell id="1" parent="0"/>
                <mxCell id="mw1qhxmh3SIuLwi_OL3V-1" value="&lt;font style=&quot;font-size: 22px;&quot;&gt;TEST&lt;/font&gt;" style="rounded=1;whiteSpace=wrap;html=1;fillColor=#60a917;fontColor=#ffffff;strokeColor=#2D7600;" parent="1" vertex="1">
                    <mxGeometry x="-460" y="80" width="390" height="195" as="geometry"/>
                </mxCell>
            </root>
        </mxGraphModel>
    </diagram>
</mxfile>